<svg xmlns="http://www.w3.org/2000/svg" viewBox="0 0 600 600" width="600" height="600" role="img" aria-hidden="true" focusable="false"><defs><linearGradient id="g2296964226" x1="0" y1="0" x2="0" y2="1">
<stop offset="0" stop-color="#ffe8a3"/><stop offset="1" stop-color="#ffb37b"/>
</linearGradient></defs><rect width="600" height="600" fill="url(#g2296964226)"/><line x1="528.9" y1="132" x2="550.5" y2="132" stroke="#3f2a56" stroke-width="8.64" stroke-linecap="round" opacity="0.75"/><line x1="519.13" y1="168.45" x2="537.84" y2="179.25" stroke="#3f2a56" stroke-width="8.64" stroke-linecap="round" opacity="0.75"/><line x1="492.45" y1="195.13" x2="503.25" y2="213.84" stroke="#3f2a56" stroke-width="8.64" stroke-linecap="round" opacity="0.75"/><line x1="456" y1="204.9" x2="456" y2="226.5" stroke="#3f2a56" stroke-width="8.64" stroke-linecap="round" opacity="0.75"/><line x1="419.55" y1="195.13" x2="408.75" y2="213.84" stroke="#3f2a56" stroke-width="8.64" stroke-linecap="round" opacity="0.75"/><line x1="392.87" y1="168.45" x2="374.16" y2="179.25" stroke="#3f2a56" stroke-width="8.64" stroke-linecap="round" opacity="0.75"/><line x1="383.1" y1="132" x2="361.5" y2="132" stroke="#3f2a56" stroke-width="8.64" stroke-linecap="round" opacity="0.75"/><line x1="392.87" y1="95.55" x2="374.16" y2="84.75" stroke="#3f2a56" stroke-width="8.64" stroke-linecap="round" opacity="0.75"/><line x1="419.55" y1="68.87" x2="408.75" y2="50.16" stroke="#3f2a56" stroke-width="8.64" stroke-linecap="round" opacity="0.75"/><line x1="456" y1="59.1" x2="456" y2="37.5" stroke="#3f2a56" stroke-width="8.64" stroke-linecap="round" opacity="0.75"/><line x1="492.45" y1="68.87" x2="503.25" y2="50.16" stroke="#3f2a56" stroke-width="8.64" stroke-linecap="round" opacity="0.75"/><line x1="519.13" y1="95.55" x2="537.84" y2="84.75" stroke="#3f2a56" stroke-width="8.64" stroke-linecap="round" opacity="0.75"/><circle cx="456" cy="132" r="54" fill="#3f2a56"/><g opacity="0.85" transform="translate(281.47 91.13)">
<ellipse cx="0" cy="0" rx="62.92" ry="39.01" fill="#ffffff"/>
<ellipse cx="53.49" cy="7.55" rx="42.79" ry="30.2" fill="#ffffff"/>
<ellipse cx="-50.34" cy="10.07" rx="37.75" ry="27.69" fill="#ffffff"/>
</g><g opacity="0.85" transform="translate(523.75 168.78)">
<ellipse cx="0" cy="0" rx="40.1" ry="24.86" fill="#ffffff"/>
<ellipse cx="34.08" cy="4.81" rx="27.27" ry="19.25" fill="#ffffff"/>
<ellipse cx="-32.08" cy="6.42" rx="24.06" ry="17.64" fill="#ffffff"/>
</g><path d="M0 312 Q 50 311.65 100 341.65 Q 150 296.39 200 326.39 Q 250 266.07 300 296.07 Q 350 252.02 400 282.02 Q 450 262.98 500 292.98 Q 550 304.69 600 334.69 L 600 600 L 0 600 Z" fill="#f79d65"/><path d="M0 408 Q 50 333.01 100 372.01 Q 150 340.63 200 379.63 Q 250 361.44 300 400.44 Q 350 391.68 400 430.68 Q 450 397.12 500 436.12 Q 550 372.37 600 411.37 L 600 600 L 0 600 Z" fill="#e2715f"/><path d="M0 504 Q 50 422.26 100 470.26 Q 150 499.91 200 547.91 Q 250 494.04 300 542.04 Q 350 436.72 400 484.72 Q 450 421.31 500 469.31 Q 550 423.49 600 471.49 L 600 600 L 0 600 Z" fill="#a33b56"/><g transform="translate(300 420)">
<ellipse cx="0" cy="-119.04" rx="153.6" ry="46.08" fill="#3f2a56"/>
<path d="M-153.6 -119.04 L -153.6 96 Q 0 201.6 153.6 96 L 153.6 -119.04 Z" fill="#f6e0b5"/>
<path d="M-153.6 9.6 L 153.6 9.6" stroke="#3a1f2e" stroke-width="19.2"/>
</g></svg>
