<svg xmlns="http://www.w3.org/2000/svg" viewBox="0 0 600 600" width="600" height="600" role="img" aria-hidden="true" focusable="false"><defs><linearGradient id="g3586981395" x1="0" y1="0" x2="0" y2="1">
<stop offset="0" stop-color="#caf0f8"/><stop offset="1" stop-color="#90e0ef"/>
</linearGradient></defs><rect width="600" height="600" fill="url(#g3586981395)"/><line x1="528.9" y1="132" x2="550.5" y2="132" stroke="#ffe066" stroke-width="8.64" stroke-linecap="round" opacity="0.75"/><line x1="519.13" y1="168.45" x2="537.84" y2="179.25" stroke="#ffe066" stroke-width="8.64" stroke-linecap="round" opacity="0.75"/><line x1="492.45" y1="195.13" x2="503.25" y2="213.84" stroke="#ffe066" stroke-width="8.64" stroke-linecap="round" opacity="0.75"/><line x1="456" y1="204.9" x2="456" y2="226.5" stroke="#ffe066" stroke-width="8.64" stroke-linecap="round" opacity="0.75"/><line x1="419.55" y1="195.13" x2="408.75" y2="213.84" stroke="#ffe066" stroke-width="8.64" stroke-linecap="round" opacity="0.75"/><line x1="392.87" y1="168.45" x2="374.16" y2="179.25" stroke="#ffe066" stroke-width="8.64" stroke-linecap="round" opacity="0.75"/><line x1="383.1" y1="132" x2="361.5" y2="132" stroke="#ffe066" stroke-width="8.64" stroke-linecap="round" opacity="0.75"/><line x1="392.87" y1="95.55" x2="374.16" y2="84.75" stroke="#ffe066" stroke-width="8.64" stroke-linecap="round" opacity="0.75"/><line x1="419.55" y1="68.87" x2="408.75" y2="50.16" stroke="#ffe066" stroke-width="8.64" stroke-linecap="round" opacity="0.75"/><line x1="456" y1="59.1" x2="456" y2="37.5" stroke="#ffe066" stroke-width="8.64" stroke-linecap="round" opacity="0.75"/><line x1="492.45" y1="68.87" x2="503.25" y2="50.16" stroke="#ffe066" stroke-width="8.64" stroke-linecap="round" opacity="0.75"/><line x1="519.13" y1="95.55" x2="537.84" y2="84.75" stroke="#ffe066" stroke-width="8.64" stroke-linecap="round" opacity="0.75"/><circle cx="456" cy="132" r="54" fill="#ffe066"/><g opacity="0.85" transform="translate(76.91 74.95)">
<ellipse cx="0" cy="0" rx="37.69" ry="23.37" fill="#ffffff"/>
<ellipse cx="32.04" cy="4.52" rx="25.63" ry="18.09" fill="#ffffff"/>
<ellipse cx="-30.15" cy="6.03" rx="22.61" ry="16.58" fill="#ffffff"/>
</g><g opacity="0.85" transform="translate(232.92 185.52)">
<ellipse cx="0" cy="0" rx="64.34" ry="39.89" fill="#ffffff"/>
<ellipse cx="54.69" cy="7.72" rx="43.75" ry="30.88" fill="#ffffff"/>
<ellipse cx="-51.47" cy="10.29" rx="38.6" ry="28.31" fill="#ffffff"/>
</g><path d="M0 312 Q 50 311.06 100 341.06 Q 150 296.98 200 326.98 Q 250 257.96 300 287.96 Q 350 253.13 400 283.13 Q 450 261.21 500 291.21 Q 550 309.87 600 339.87 L 600 600 L 0 600 Z" fill="#48cae4"/><path d="M0 408 Q 50 353.59 100 392.59 Q 150 334.37 200 373.37 Q 250 346.39 300 385.39 Q 350 404.56 400 443.56 Q 450 393.21 500 432.21 Q 550 366.65 600 405.65 L 600 600 L 0 600 Z" fill="#0096c7"/><path d="M0 504 Q 50 447.49 100 495.49 Q 150 471.73 200 519.73 Q 250 491.42 300 539.42 Q 350 463.72 400 511.72 Q 450 408.51 500 456.51 Q 550 418.49 600 466.49 L 600 600 L 0 600 Z" fill="#023e8a"/><g transform="translate(300 348)">
<rect x="-186" y="-186" width="372" height="372" rx="29.76" fill="#ffffff" stroke="#48cae4" stroke-width="7.44"/>
<g transform="translate(-119.04 -119.04)"><ellipse rx="49.1" ry="30.69" fill="#0096c7"/><ellipse cx="32.74" cy="6.14" rx="32.74" ry="22.51" fill="#0096c7"/></g><g transform="translate(0 -119.04)"><ellipse rx="49.1" ry="30.69" fill="#48cae4"/><ellipse cx="32.74" cy="6.14" rx="32.74" ry="22.51" fill="#48cae4"/></g><circle cx="119.04" cy="-119.04" r="40.92" fill="#023e8a"/><g transform="translate(-119.04 0)"><path d="NaN" fill="#48cae4" opacity="0.9"/></g><circle cx="0" cy="0" r="40.92" fill="#023e8a"/><path d="M78.12 40.92 Q 176.33 40.92 159.96 -49.1 Q 69.94 -40.92 78.12 40.92 Z" fill="#48cae4"/><path d="M-119.04 159.96 C -184.51 102.67 -139.5 61.75 -119.04 102.67 C -98.58 61.75 -53.57 102.67 -119.04 159.96 Z" fill="#ffe066"/><path d="M-40.92 159.96 Q 57.29 159.96 40.92 69.94 Q -49.1 78.12 -40.92 159.96 Z" fill="#0096c7"/><path d="M78.12 159.96 Q 176.33 159.96 159.96 69.94 Q 69.94 78.12 78.12 159.96 Z" fill="#48cae4"/>
</g></svg>
