<svg xmlns="http://www.w3.org/2000/svg" viewBox="0 0 640 420" width="640" height="420" role="img" aria-hidden="true" focusable="false"><defs><linearGradient id="g2695313685" x1="0" y1="0" x2="0" y2="1">
<stop offset="0" stop-color="#fdf6e3"/><stop offset="1" stop-color="#f3e3c3"/>
</linearGradient></defs><rect width="640" height="420" fill="url(#g2695313685)"/><line x1="537.43" y1="92.4" x2="552.55" y2="92.4" stroke="#5b8def" stroke-width="6.05" stroke-linecap="round" opacity="0.75"/><line x1="530.59" y1="117.92" x2="543.69" y2="125.48" stroke="#5b8def" stroke-width="6.05" stroke-linecap="round" opacity="0.75"/><line x1="511.92" y1="136.59" x2="519.48" y2="149.69" stroke="#5b8def" stroke-width="6.05" stroke-linecap="round" opacity="0.75"/><line x1="486.4" y1="143.43" x2="486.4" y2="158.55" stroke="#5b8def" stroke-width="6.05" stroke-linecap="round" opacity="0.75"/><line x1="460.89" y1="136.59" x2="453.33" y2="149.69" stroke="#5b8def" stroke-width="6.05" stroke-linecap="round" opacity="0.75"/><line x1="442.21" y1="117.92" x2="429.11" y2="125.48" stroke="#5b8def" stroke-width="6.05" stroke-linecap="round" opacity="0.75"/><line x1="435.37" y1="92.4" x2="420.25" y2="92.4" stroke="#5b8def" stroke-width="6.05" stroke-linecap="round" opacity="0.75"/><line x1="442.21" y1="66.89" x2="429.11" y2="59.33" stroke="#5b8def" stroke-width="6.05" stroke-linecap="round" opacity="0.75"/><line x1="460.88" y1="48.21" x2="453.32" y2="35.11" stroke="#5b8def" stroke-width="6.05" stroke-linecap="round" opacity="0.75"/><line x1="486.4" y1="41.37" x2="486.4" y2="26.25" stroke="#5b8def" stroke-width="6.05" stroke-linecap="round" opacity="0.75"/><line x1="511.92" y1="48.21" x2="519.48" y2="35.11" stroke="#5b8def" stroke-width="6.05" stroke-linecap="round" opacity="0.75"/><line x1="530.59" y1="66.88" x2="543.69" y2="59.32" stroke="#5b8def" stroke-width="6.05" stroke-linecap="round" opacity="0.75"/><circle cx="486.4" cy="92.4" r="37.8" fill="#5b8def"/><g opacity="0.85" transform="translate(131.39 106.15)">
<ellipse cx="0" cy="0" rx="43.6" ry="27.03" fill="#ffffff"/>
<ellipse cx="37.06" cy="5.23" rx="29.65" ry="20.93" fill="#ffffff"/>
<ellipse cx="-34.88" cy="6.98" rx="26.16" ry="19.19" fill="#ffffff"/>
</g><g opacity="0.85" transform="translate(477.94 79.5)">
<ellipse cx="0" cy="0" rx="41.08" ry="25.47" fill="#ffffff"/>
<ellipse cx="34.92" cy="4.93" rx="27.93" ry="19.72" fill="#ffffff"/>
<ellipse cx="-32.86" cy="6.57" rx="24.65" ry="18.07" fill="#ffffff"/>
</g><path d="M0 218.4 Q 53.33 218.03 106.67 239.03 Q 160 207.56 213.33 228.56 Q 266.67 187.13 320 208.13 Q 373.33 180.05 426.67 201.05 Q 480 182.8 533.33 203.8 Q 586.67 214.3 640 235.3 L 640 420 L 0 420 Z" fill="#e6d3ae"/><path d="M0 285.6 Q 53.33 235.57 106.67 262.87 Q 160 235.65 213.33 262.95 Q 266.67 258.78 320 286.08 Q 373.33 268.78 426.67 296.08 Q 480 283.07 533.33 310.37 Q 586.67 252.2 640 279.5 L 640 420 L 0 420 Z" fill="#d3b98a"/><path d="M0 352.8 Q 53.33 323.31 106.67 356.91 Q 160 348.86 213.33 382.46 Q 266.67 343.5 320 377.1 Q 373.33 307.18 426.67 340.78 Q 480 290.4 533.33 324 Q 586.67 290.69 640 324.29 L 640 420 L 0 420 Z" fill="#a98e60"/><g transform="translate(320 260.4) rotate(-6)">
<rect x="-63" y="-45.36" width="126" height="90.72" rx="6.3" fill="#5b8def"/>
<rect x="-63" y="-45.36" width="7.56" height="90.72" fill="#4a3f28" opacity="0.35"/>
<path d="M0 -42.84 Q 27.72 -55.44 57.96 -37.8 L 57.96 40.32 Q 27.72 22.68 0 37.8 Z" fill="#ffffff" opacity="0.92"/>
</g></svg>
